<?xml version="1.0" standalone="no"?>
<!DOCTYPE svg PUBLIC "-//W3C//DTD SVG 20010904//EN"
 "http://www.w3.org/TR/2001/REC-SVG-20010904/DTD/svg10.dtd">
<svg version="1.0" xmlns="http://www.w3.org/2000/svg"
 width="512.000000pt" height="512.000000pt" viewBox="0 0 512.000000 512.000000"
 preserveAspectRatio="xMidYMid meet">
<metadata>
Created by potrace 1.11, written by Peter Selinger 2001-2013
</metadata>
<g transform="translate(0.000000,512.000000) scale(0.100000,-0.100000)"
fill="#000000" stroke="none">
<path d="M968 5101 c-84 -27 -137 -62 -204 -133 -39 -42 -69 -87 -89 -133
l-30 -70 -3 -2205 c-2 -2024 -1 -2208 14 -2255 45 -137 145 -239 282 -286 53
-18 113 -19 1799 -19 l1743 0 0 2560 0 2560 -1727 -1 c-1644 0 -1731 -1 -1785
-18z m3340 -193 l3 -38 -216 0 c-244 0 -275 -6 -293 -60 -14 -38 4 -92 36
-109 13 -7 104 -11 246 -11 l226 0 0 -40 0 -40 -188 0 c-175 0 -190 -1 -210
-20 -48 -45 -39 -114 18 -142 29 -15 63 -18 208 -18 l172 0 0 -35 0 -35 -780
0 -780 0 80 160 c44 88 80 164 80 170 0 7 -205 10 -608 10 l-607 0 -85 -171
-85 -170 -245 3 c-243 3 -245 3 -295 30 -105 55 -164 148 -165 254 0 152 98
268 247 294 27 4 766 7 1643 6 l1595 -1 3 -37z m-1738 -508 l-60 -120 0 -1037
0 -1038 -208 347 c-114 191 -209 347 -212 347 -3 0 -98 -156 -212 -347 l-208
-347 0 1022 0 1023 67 135 68 135 412 0 413 0 -60 -120z m-1621 -204 c30 -9
67 -16 83 -16 l28 0 0 -2000 0 -2000 -27 0 c-68 1 -164 75 -200 155 -17 38
-18 137 -21 1983 l-2 1943 42 -25 c24 -13 67 -31 97 -40z m541 -1106 c0 -1204
-4 -1130 63 -1170 18 -11 48 -20 68 -20 71 0 91 25 284 347 99 166 182 303
185 303 3 0 87 -137 188 -305 101 -168 194 -312 207 -321 63 -41 148 -23 185
39 19 31 20 59 20 1125 l0 1092 810 0 810 0 -2 -2002 -3 -2003 -1532 -3 -1533
-2 0 2005 0 2005 125 0 125 0 0 -1090z"/>
</g>
</svg>
